<svg id="Layer_1" data-name="Layer 1" xmlns="http://www.w3.org/2000/svg" viewBox="0 0 31.68 43.8"><defs><style>.cls-1{fill:#fcb851;}.cls-2{fill:#fff;}</style></defs><title>Artboard 2</title><path class="cls-1" d="M31.68,15.84c0,8.75-15.84,28-15.84,28S0,24.59,0,15.84a15.84,15.84,0,0,1,31.68,0Z"/><path class="cls-2" d="M13.77,9.41a.75.75,0,1,1-.86-.61A.75.75,0,0,1,13.77,9.41Z"/><path class="cls-2" d="M16.25,7.93a.77.77,0,1,1-.89-.63A.77.77,0,0,1,16.25,7.93Z"/><path class="cls-2" d="M18.8,6.36a.8.8,0,1,1-.93-.66A.8.8,0,0,1,18.8,6.36Z"/><path class="cls-2" d="M19.73,9a.77.77,0,1,1-.89-.63A.77.77,0,0,1,19.73,9Z"/><path class="cls-2" d="M20.73,11.49a.79.79,0,1,1-.91-.65A.79.79,0,0,1,20.73,11.49Z"/><path class="cls-2" d="M17.29,10.41a.76.76,0,1,1-.88-.63A.76.76,0,0,1,17.29,10.41Z"/><path class="cls-2" d="M24.68,21.88c-.12-.25-2.08-5.53-2.7-6.92a2.88,2.88,0,0,0-1.84-1.51c-1.69-.53-7.52-2.26-9.3-2.65a3.45,3.45,0,0,0-2,.3c-1.1.59-3.79,2.21-3.79,2.21a.29.29,0,0,0-.12.44c.11.18,10.59,12.93,10.9,13.38.17.24.35.23.46.17l8.15-4.83c.28-.17.34-.27.19-.59ZM8.73,13c1.66-.94,3.77-1.16,6,3.21a.32.32,0,0,0,.49.12c3-2.37,5.09-1.54,5.83.45.14.39.35,1,1,2.71a.12.12,0,0,1-.11.16l-9.74,0a.12.12,0,0,1-.09,0C10.26,17.39,8.22,15.07,7.43,14a.12.12,0,0,1,0-.17A12.21,12.21,0,0,1,8.73,13Z"/></svg>